<svg width="220" height="40" viewBox="0 0 220 40" fill="none" xmlns="http://www.w3.org/2000/svg">
<path d="M2.01581 16.5284C3.2169 14.2816 5.04163 12.435 7.26758 11.2135C9.6207 9.8973 12.2698 9.20979 14.962 9.21655C18.2741 9.16037 21.5059 10.2443 24.1221 12.2887C26.7337 14.3318 28.5231 17.256 29.1601 20.5222H19.5115C19.2337 19.4984 18.6154 18.6013 17.7596 17.9807C16.9039 17.3601 15.8626 17.0535 14.8094 17.1121C14.0382 17.087 13.2727 17.2532 12.5805 17.5961C11.8883 17.939 11.2905 18.448 10.84 19.0783C9.76225 20.6998 9.23718 22.6298 9.34386 24.5775C9.23924 26.5443 9.76358 28.4931 10.84 30.1382C11.2975 30.7589 11.8974 31.2591 12.5886 31.5961C13.2798 31.9331 14.0417 32.097 14.8094 32.0737C15.8546 32.1357 16.8896 31.8378 17.7442 31.2292C18.5988 30.6206 19.2221 29.7374 19.5115 28.725H29.1601C28.4993 31.9337 26.7507 34.8116 24.2137 36.8663C21.6023 38.9197 18.3672 40.0047 15.0536 39.9385C12.3706 39.9968 9.7187 39.3509 7.35918 38.0645C5.09506 36.8491 3.23667 34.9899 2.01581 32.7188C0.716185 30.2089 0.0750838 27.4066 0.153264 24.5775C0.091986 21.7796 0.732564 19.0113 2.01581 16.5284Z" fill="#231F20"/>
<path d="M39.6936 38.0338C37.4063 36.8214 35.5103 34.9776 34.228 32.7189C32.8275 30.2397 32.1107 27.429 32.1518 24.5776C32.0926 21.7514 32.7886 18.961 34.167 16.4977C35.4675 14.2396 37.3859 12.4053 39.6936 11.2135C42.0983 9.91662 44.7818 9.23107 47.5101 9.21661C50.2293 9.18441 52.9142 9.82813 55.3267 11.0906C57.6458 12.2946 59.5662 14.1521 60.8533 16.4363C62.2424 18.9176 62.9387 21.7306 62.8685 24.5776C62.9189 27.397 62.2121 30.1778 60.8228 32.6267C59.5164 34.9065 57.5878 36.7617 55.2657 37.9724C52.8353 39.246 50.1279 39.8901 47.388 39.8464C44.7135 39.8938 42.0692 39.2709 39.6936 38.0338ZM51.907 30.1075C52.5447 29.3465 53.0268 28.4662 53.3255 27.5173C53.6241 26.5683 53.7335 25.5692 53.6474 24.5776C53.7774 22.608 53.1549 20.6629 51.907 19.1398C51.3378 18.5499 50.6567 18.0809 49.9041 17.7606C49.1514 17.4404 48.3426 17.2753 47.5254 17.2753C46.7082 17.2753 45.8994 17.4404 45.1468 17.7606C44.3941 18.0809 43.713 18.5499 43.1438 19.1398C41.8959 20.6643 41.2637 22.6055 41.3729 24.5776C41.2448 26.5512 41.8547 28.5017 43.0828 30.0461C43.6168 30.6649 44.2789 31.1588 45.0225 31.4932C45.7662 31.8275 46.5736 31.9942 47.388 31.9816C48.2309 32.0147 49.071 31.8644 49.8509 31.541C50.6307 31.2176 51.3321 30.7286 51.907 30.1075Z" fill="#231F20"/>
<path d="M67.6012 16.5284C68.6215 14.3439 70.2427 12.4995 72.2728 11.2135C74.2484 9.92886 76.5464 9.23626 78.8986 9.21659C80.7402 9.20735 82.5588 9.628 84.2114 10.4455C85.7338 11.2089 87.037 12.351 87.9976 13.7634V0H97.1577V39.4777H87.9976V35.2381C87.1087 36.6791 85.8546 37.8561 84.3641 38.6482C82.6729 39.5137 80.7956 39.9464 78.8986 39.9078C76.5571 39.9352 74.2572 39.2846 72.2728 38.0338C70.2461 36.7171 68.6275 34.8543 67.6012 32.6574C66.4017 30.1379 65.8056 27.3707 65.8608 24.5776C65.8012 21.7939 66.3976 19.0356 67.6012 16.5284ZM86.1045 19.2627C85.5212 18.6296 84.8119 18.1273 84.0227 17.7885C83.2336 17.4497 82.3823 17.2821 81.5245 17.2965C80.6689 17.2782 79.819 17.441 79.03 17.7745C78.241 18.1079 77.5305 18.6044 76.9445 19.2319C76.2962 19.9535 75.7976 20.798 75.4778 21.7159C75.158 22.6338 75.0234 23.6067 75.0819 24.5776C74.971 26.5564 75.6403 28.4993 76.9445 29.9846C77.5349 30.6093 78.2453 31.1066 79.0326 31.4465C79.82 31.7863 80.6678 31.9616 81.5245 31.9616C82.3812 31.9616 83.229 31.7863 84.0163 31.4465C84.8037 31.1066 85.5141 30.6093 86.1045 29.9846C86.7586 29.2533 87.2626 28.3992 87.5874 27.4712C87.9123 26.5433 88.0517 25.5599 87.9976 24.5776C88.089 22.6239 87.4085 20.7132 86.1045 19.2627Z" fill="#231F20"/>
<path d="M116.791 39.9386C114.079 39.9933 111.398 39.3481 109.005 38.0645C106.801 36.8197 105 34.9643 103.814 32.7189C102.461 30.2232 101.767 27.4201 101.799 24.5776C101.784 21.7664 102.478 18.9973 103.814 16.5284C105.006 14.2752 106.833 12.4263 109.066 11.2135C111.416 9.91731 114.05 9.23097 116.73 9.2166C119.375 9.17154 121.989 9.79475 124.333 11.0292C126.522 12.2196 128.332 14.0089 129.554 16.1905C130.85 18.592 131.503 21.2921 131.447 24.0246C131.445 24.9186 131.383 25.8115 131.264 26.6974H110.806C110.829 28.288 111.464 29.8078 112.577 30.937C113.781 31.8676 115.275 32.336 116.791 32.2581V39.9386ZM122.134 21.7512C122.168 21.0508 122.043 20.352 121.767 19.7078C121.492 19.0636 121.075 18.4911 120.546 18.0338C119.441 17.0903 118.025 16.5971 116.577 16.6513C115.187 16.6066 113.829 17.0766 112.76 17.9724C111.682 18.9572 110.989 20.2974 110.806 21.7512H122.134Z" fill="#231F20"/>
<path d="M149.614 0L140.79 39.4777H131.63L140.668 0H149.614Z" fill="#231F20"/>
<path d="M151.721 16.5285C152.763 14.3484 154.392 12.5067 156.423 11.2136C158.386 9.9251 160.675 9.23189 163.019 9.21664C164.929 9.1773 166.819 9.62096 168.515 10.507C169.996 11.2729 171.242 12.4306 172.118 13.8557V9.76963H181.278V39.4778H172.118V35.2689C171.199 36.6881 169.939 37.8506 168.454 38.6483C166.762 39.5138 164.885 39.9464 162.988 39.9079C160.665 39.9391 158.384 39.2878 156.423 38.0338C154.396 36.7091 152.769 34.8493 151.721 32.6575C150.551 30.1291 149.966 27.3664 150.011 24.5776C149.957 21.7978 150.542 19.043 151.721 16.5285ZM170.255 19.2627C169.672 18.6297 168.962 18.1274 168.173 17.7886C167.384 17.4498 166.533 17.2821 165.675 17.2965C164.819 17.2782 163.97 17.4411 163.181 17.7745C162.392 18.1079 161.681 18.6045 161.095 19.232C160.443 19.9521 159.939 20.7956 159.614 21.7134C159.289 22.6311 159.149 23.6048 159.202 24.5776C159.099 26.5607 159.78 28.5042 161.095 29.9847C161.685 30.6093 162.396 31.1067 163.183 31.4465C163.971 31.7864 164.818 31.9616 165.675 31.9616C166.532 31.9616 167.38 31.7864 168.167 31.4465C168.954 31.1067 169.665 30.6093 170.255 29.9847C170.905 29.2519 171.404 28.3968 171.724 27.4687C172.044 26.5406 172.178 25.558 172.118 24.5776C172.217 22.6282 171.548 20.7181 170.255 19.2627Z" fill="#231F20"/>
<path d="M200.453 10.6298C202.117 9.7049 203.987 9.21874 205.888 9.21659C208.228 9.19949 210.525 9.84922 212.513 11.0906C214.529 12.3932 216.147 14.2331 217.185 16.4055C218.397 18.9525 218.984 21.7551 218.895 24.5776C218.961 27.3683 218.375 30.1357 217.185 32.6574C216.139 34.8411 214.524 36.6989 212.513 38.0338C210.529 39.2846 208.229 39.9352 205.888 39.9078C204 39.9503 202.132 39.5173 200.453 38.6482C198.965 37.8825 197.702 36.7387 196.789 35.3303V39.4777H187.629V0H196.789V13.9785C197.681 12.5451 198.949 11.3866 200.453 10.6298ZM207.811 19.232C207.222 18.6005 206.506 18.1017 205.712 17.7681C204.917 17.4346 204.061 17.2738 203.201 17.2965C202.343 17.2821 201.492 17.4497 200.702 17.7885C199.913 18.1273 199.204 18.6296 198.621 19.2627C197.317 20.7132 196.636 22.6239 196.728 24.5776C196.627 26.5512 197.307 28.4845 198.621 29.9539C199.211 30.5786 199.922 31.0759 200.709 31.4158C201.496 31.7556 202.344 31.9309 203.201 31.9309C204.057 31.9309 204.905 31.7556 205.693 31.4158C206.48 31.0759 207.19 30.5786 207.781 29.9539C208.438 29.2297 208.946 28.3818 209.276 27.4591C209.607 26.5364 209.752 25.5571 209.704 24.5776C209.757 23.6047 209.617 22.6311 209.292 21.7133C208.967 20.7955 208.463 19.952 207.811 19.232Z" fill="#231F20"/>
<path d="M124.149 39.9078C126.493 39.9078 128.394 37.9959 128.394 35.6374C128.394 33.279 126.493 31.3671 124.149 31.3671C121.805 31.3671 119.905 33.279 119.905 35.6374C119.905 37.9959 121.805 39.9078 124.149 39.9078Z" fill="#F26F71"/>
</svg>
